<svg xmlns="http://www.w3.org/2000/svg" viewBox="0 0 537.09 444.25"><defs><style>.cls-1{fill:#e8b598;}.cls-1,.cls-3,.cls-4{fill-rule:evenodd;}.cls-2{fill:#979797;}.cls-3{fill:gray;}.cls-4{fill:#ea2429;}</style></defs><title>Asset 1</title><g id="Layer_2" data-name="Layer 2"><g id="_23" data-name="23"><path class="cls-1" d="M537.09,267.28c-4.37,4.83-9.65,9-14.48,13.33-6,5.29-11.95,10.34-17.92,15.41-11.26,9.42-22.53,18.38-33.79,27.81-2.29-5.75-7.12-10.58-12.18-13.8-7.35-5-16.54-7.58-25.74-9,5.52-7.36,15.17-10.34,23.44-14,9.43-4.15,17-10.82,25.28-17.25,8.05-6.2,16.78-11.95,27.36-12.63,9.65-.7,21.59,2.05,28,10.1ZM389.55,292.57h.23v-.24l-.23.24Zm-25.74,54a1.79,1.79,0,0,1-1.15-.22c-2.76-.23-5.29-.23-8-.46l-6.9-.46s-.92.23-.92,0c-3.68,0-7.35,0-11,.23l-3.91.23c-3.44.23-6.66.46-10.11.92a151.33,151.33,0,0,0-43.43,13.56c-2.31,1.15-4.37-2.3-2.08-3.44a144.4,144.4,0,0,1,48.5-14.49c12.87-1.6,26-1.14,38.84,0h.69c2.06.24,3.9.46,5.74.7,12.87,1.38,25.28,3.91,38.15,5.05s26.43,1.38,38.84-3c9.42-3.22,23.67-7.81,20.46-20.22-3-11.94-16.09-14.26-26.89-17.47-14.25-3.91-29.19-4.13-44.13-3.91-14.71.47-29.42-2.3-44.13-2.52-13.78-.46-27.8-5.75-40-12.87-.23,0-.23-.22-.46-.22a.23.23,0,0,1-.23-.24h-.23c-38.61-26.65-87.34-25.05-135.59-19.31-32.64,4.14-65.74,3.22-92.85,22.06C71,299,60.67,309.12,50.1,319.22c-.69.7-1.15,1.15-1.83,1.85l55.15,82.72c3.45-2.52,6.89-4.59,10.35-6.66A83.51,83.51,0,0,1,155.59,387c14.94.23,30.11,2.76,44.59,6.21,16.31,3.67,32.4,8.27,48.71,12.4,16.09,4.37,32.18,8.5,48.5,11.27,16.09,2.52,33.09,4.14,48.95.46h.46c14.94-9,27.58-21.37,40-33.55,6-6.21,12.18-12.42,18.85-18.16,5.05-4.37,10.11-9,15.85-12.64-15.85,0-31.71-3.22-47.57-5.29ZM490.43,242c-8,3.45-15.39,9.18-22.05,14.71-4.6,3.43-9,7.12-13.57,10.56-5.05,3.45-10.11,6.67-15.4,9.88-10.11,6.44-20.68,13.11-28.26,22.53-7.59,0-15.17.46-22.75,1.14,6.66-6.66,14.47-12.17,22.29-17.68,8.73-6.45,16.55-13.56,24.59-20.92,7.59-7.35,15.86-14.25,25.74-18.15a54.24,54.24,0,0,1,18.39-3.23,44.85,44.85,0,0,1,11,1.16Zm34.48,5.29c-.69,2.51-2.53,4.59-3.91,6.66a50.57,50.57,0,0,0-8.27-.92c-11.49-.69-21.84,4.82-30.8,11.48s-17.24,14.26-27.58,18.85c-9.65,4.37-19.76,7.82-26,17h0c-3-.22-6-.45-9-.45a13,13,0,0,0-3-.23c6.89-7.36,15.4-12.87,23.9-18.16a315.81,315.81,0,0,0,27.12-18.84c8.5-7.13,17.46-14.25,28-18.15,9.2-3.45,21.84-4.61,29.42,2.76Z"/><rect class="cls-2" x="37.38" y="292.97" width="51.19" height="149.73" transform="translate(-194.16 97.37) rotate(-33.84)"/><polygon class="cls-3" points="4.83 316.7 0 319.92 83.43 444.25 88.26 441.04 4.83 316.7"/><path class="cls-4" d="M393.91,156.05,313,0,232.58,156.05c-16.09,54.48,36.08,97.67,80.67,97.67s99.28-42.51,80.66-97.67Z"/></g></g></svg>